<svg width="44" height="44" viewBox="0 0 44 44" fill="none" xmlns="http://www.w3.org/2000/svg">
<circle cx="22" cy="22" r="22" fill="#143163"/>
<path d="M22.9821 23.7101C22.738 23.6988 22.495 23.6848 22.2519 23.6679C21.7056 23.6267 21.1631 23.5639 20.6254 23.4786C20.0866 23.397 19.5526 23.294 19.0242 23.1684C17.9674 22.921 16.9312 22.5911 15.9251 22.1843C15.422 21.98 14.9274 21.7551 14.4393 21.5124C14.1371 21.3615 13.8377 21.2031 13.543 21.0363C13.7279 20.7214 13.9118 20.4056 14.0911 20.0879C14.1887 19.9192 14.2826 19.7495 14.3764 19.579C14.0104 19.3175 13.6857 19.0729 13.4069 18.8555C13.2802 19.0579 13.1535 19.2603 13.0305 19.4656C12.7696 19.8901 12.5143 20.3193 12.2637 20.7504C12.1933 20.8713 12.1239 20.9913 12.0535 21.1122C12.2309 21.22 12.4092 21.3249 12.5894 21.428C13.085 21.7101 13.5909 21.9697 14.1042 22.2078C14.6176 22.4458 15.1404 22.6585 15.6698 22.8488C16.7285 23.2302 17.8144 23.517 18.9134 23.7082C19.4634 23.8028 20.0162 23.8741 20.5709 23.9228C21.1256 23.9678 21.6822 23.9903 22.2387 23.9893C22.7934 23.9903 23.3481 23.9594 23.9 23.9097C23.5903 23.8506 23.2833 23.7841 22.9802 23.7101H22.9821Z" fill="#17CFDA"/>
<path d="M14.353 20.9416C16.1644 21.8497 18.0978 22.4608 20.081 22.7626C18.0133 21.9228 16.216 20.8479 14.8664 19.921C14.6955 20.2612 14.5247 20.6014 14.353 20.9416Z" fill="#17CFDA"/>
<path d="M14.642 19.1919C15.0766 19.5546 15.5262 19.8948 15.9879 20.2162C16.9115 20.8582 17.8857 21.4158 18.8984 21.8844C19.4052 22.1177 19.9205 22.3295 20.4442 22.5198C20.9689 22.7063 21.5001 22.8722 22.0379 23.0146C22.5729 23.159 23.1172 23.2724 23.6635 23.367C23.38 23.2302 23.1003 23.0868 22.8272 22.9368C22.5944 22.8628 22.3626 22.7869 22.1327 22.7072C21.6165 22.5264 21.1087 22.3249 20.6113 22.1037C20.112 21.8863 19.623 21.6482 19.1452 21.3905C18.1879 20.8779 17.2728 20.2921 16.4065 19.6389C15.9729 19.3118 15.5534 18.966 15.146 18.6061C14.8926 18.3821 14.6458 18.1516 14.4036 17.9145C14.6646 17.6586 14.9236 17.4009 15.1789 17.1394C15.3169 17.0017 15.452 16.862 15.5862 16.7215C15.3009 16.3738 15.0503 16.0542 14.8373 15.7721C14.6617 15.9352 14.4872 16.0982 14.3154 16.2641C13.9531 16.6071 13.5955 16.9558 13.2417 17.3072C13.1432 17.4056 13.0437 17.504 12.9451 17.6024C13.0887 17.7524 13.2333 17.9004 13.3806 18.0457C13.7861 18.4459 14.2075 18.8282 14.6411 19.19L14.642 19.1919Z" fill="#17CFDA"/>
<path d="M15.941 16.4178C16.2667 16.8808 16.613 17.326 16.9753 17.7552C17.7008 18.6146 18.4976 19.4046 19.3545 20.1188C19.7835 20.4749 20.2265 20.8132 20.6826 21.1328C21.1406 21.4486 21.6118 21.7457 22.0933 22.0231C22.5729 22.3014 23.0684 22.5507 23.5724 22.7832C23.334 22.5779 23.1013 22.367 22.876 22.1515C22.6705 22.0203 22.4668 21.8863 22.265 21.7504C21.8126 21.4421 21.3743 21.1169 20.952 20.7738C20.5268 20.4346 20.1157 20.0785 19.7206 19.7064C18.9284 18.9641 18.1973 18.1619 17.529 17.3063C17.1949 16.8789 16.8796 16.4366 16.5792 15.983C16.3925 15.7018 16.2132 15.415 16.0414 15.1236C16.3596 14.9436 16.6768 14.7618 16.9913 14.5753C17.1602 14.4779 17.3263 14.3776 17.4934 14.2773C17.3075 13.8678 17.1489 13.4938 17.0166 13.1667C16.8054 13.2783 16.5942 13.3907 16.3849 13.5069C15.9457 13.7441 15.5102 13.9887 15.0775 14.237C14.9565 14.3064 14.8354 14.3757 14.7143 14.4451C14.8138 14.6269 14.9161 14.8078 15.0203 14.9858C15.3084 15.4778 15.6163 15.9549 15.941 16.4169V16.4178Z" fill="#17CFDA"/>
<path d="M20.8384 19.8825C19.4691 18.1225 18.4498 16.295 17.7449 14.818C17.4267 15.027 17.1086 15.236 16.7895 15.4459C17.9035 17.1366 19.272 18.6314 20.8384 19.8825Z" fill="#17CFDA"/>
<path d="M17.9157 14.0739C18.11 14.6053 18.3296 15.1245 18.569 15.6325C19.0467 16.6493 19.6117 17.6193 20.2546 18.5302C20.5766 18.9857 20.9172 19.4262 21.2748 19.8526C21.6352 20.2762 22.0135 20.6848 22.4067 21.0775C22.7981 21.4702 23.212 21.8394 23.6381 22.1946C23.4607 21.9341 23.2909 21.6707 23.1285 21.4046C22.9642 21.2246 22.8019 21.0428 22.6423 20.8591C22.2857 20.4449 21.9468 20.0166 21.6268 19.5771C21.3039 19.1394 20.9998 18.6886 20.7145 18.2275C20.142 17.3063 19.6427 16.3419 19.2203 15.3429C19.0092 14.8434 18.8186 14.3345 18.6459 13.819C18.5389 13.4994 18.4395 13.1761 18.3494 12.85C18.7032 12.7581 19.057 12.6644 19.409 12.566C19.5967 12.5154 19.7844 12.462 19.9712 12.4086C19.898 11.9643 19.8417 11.5623 19.7975 11.2118C19.5648 11.2652 19.3311 11.3196 19.0993 11.3777C18.614 11.4939 18.1297 11.6167 17.6473 11.745C17.5122 11.7807 17.377 11.8163 17.2428 11.8528C17.2916 12.0543 17.3432 12.2549 17.3986 12.4545C17.5497 13.0037 17.7224 13.5444 17.9176 14.0749L17.9157 14.0739Z" fill="#17CFDA"/>
<path d="M25.2646 10.1425C24.7663 10.1125 24.2679 10.0937 23.7686 10.0694C23.2693 10.0534 22.7709 10.0291 22.2716 10.0206C21.7723 10.0075 21.273 10.0009 20.7736 10C20.6338 10 20.4949 10 20.355 10C20.3504 10.2071 20.3485 10.4142 20.3494 10.6214C20.3532 11.1912 20.3804 11.7582 20.4301 12.3214C20.4799 12.8846 20.5578 13.4432 20.6563 13.9961C20.8544 15.102 21.1491 16.1845 21.5329 17.2313C21.7263 17.7542 21.9403 18.2678 22.1759 18.772C22.4142 19.2743 22.6733 19.7664 22.952 20.2471C23.2289 20.7288 23.5339 21.1946 23.8549 21.6482C24.175 22.1028 24.5204 22.5395 24.8836 22.9612C24.572 22.5001 24.2801 22.0287 24.0042 21.5526C23.7282 21.0756 23.4758 20.5883 23.2374 20.0962C22.9999 19.6033 22.784 19.1028 22.5888 18.5949C22.3908 18.0888 22.2134 17.5752 22.0576 17.056C21.7432 16.0176 21.5114 14.9577 21.3612 13.8837C21.2861 13.3467 21.2345 12.8059 21.2007 12.2633C21.18 11.9268 21.1678 11.5885 21.165 11.2502C21.5311 11.253 21.8962 11.2539 22.2622 11.2502C22.7615 11.2502 23.2608 11.2333 23.7592 11.2258C24.2585 11.209 24.7569 11.1977 25.2562 11.1762C25.5059 11.1659 25.7546 11.1555 26.0042 11.1462C26.1197 11.1405 26.2351 11.1349 26.3496 11.1293C26.3618 11.4161 26.3815 11.701 26.4106 11.984C26.4566 12.4189 26.5223 12.85 26.6077 13.2754C26.7785 14.1273 27.032 14.9567 27.3604 15.7524C27.5256 16.1498 27.7087 16.5396 27.9086 16.9192C28.1122 17.2978 28.3319 17.6661 28.5684 18.0241C28.6078 18.0841 28.6491 18.1441 28.6894 18.2031C28.8265 18.4028 29.1174 18.7889 29.1174 18.7889L29.1991 18.892C29.1991 18.892 29.2873 19.0044 29.3324 19.0597C29.6027 19.3934 29.8946 19.7101 30.2005 20.0119C29.9443 19.6661 29.704 19.3128 29.4769 18.9557C29.2498 18.5977 29.0433 18.2303 28.8471 17.8601C28.6519 17.489 28.4745 17.1104 28.3159 16.7261C28.1526 16.3438 28.0081 15.9548 27.8804 15.5603C27.6232 14.7731 27.4346 13.968 27.3126 13.1517C27.2506 12.7431 27.2075 12.3326 27.1831 11.9193C27.1568 11.506 27.1483 11.0909 27.1596 10.6748C27.1634 10.5361 27.169 10.3974 27.1774 10.2587C27.0385 10.2502 26.8987 10.2418 26.7598 10.2324C26.6518 10.2259 26.5448 10.2184 26.4369 10.2118C26.2952 10.2024 26.1535 10.194 26.0117 10.1846C25.7621 10.1706 25.5134 10.1565 25.2637 10.1425H25.2646Z" fill="#17CFDA"/>
<path d="M27.1042 17.9961C26.6096 17.266 25.7546 16.8574 25.0112 17.1414C24.2726 17.4234 23.9563 18.4281 24.373 19.429C24.3251 19.355 24.2792 19.2791 24.2388 19.1975C23.6879 18.1151 24.0229 16.9624 24.8338 16.684C25.6485 16.4029 26.5683 16.9221 27.0132 17.7918C27.047 17.8602 27.0761 17.9286 27.1042 17.997V17.9961Z" fill="#17CFDA"/>
<path d="M31.4526 22.4354C31.4526 22.4354 31.4535 22.4354 31.4544 22.4354C31.5108 20.1562 31.0443 18.4355 30.6642 17.384C29.8533 15.1404 28.9842 14.6896 28.6087 14.5425C28.1986 14.3813 27.8166 14.3616 27.5472 14.3728C27.597 14.5818 27.6505 14.7899 27.7096 14.9961C27.8522 15.4712 27.9949 15.9511 28.1348 16.4365C28.2999 17.0063 28.4595 17.5705 28.6134 18.1309C28.7045 18.5602 28.7054 18.9969 28.4501 19.278C28.4295 19.3015 28.4051 19.3202 28.3825 19.3399C28.3037 19.2705 28.222 19.1984 28.1338 19.1197C27.7124 18.7514 27.291 18.383 26.8686 18.0147C26.4022 17.5677 25.7959 17.3728 25.2881 17.5415C25.1999 17.5705 24.8648 17.6848 24.6555 18.0147C24.4612 18.3221 24.4847 18.638 24.4978 18.8038C24.5298 19.2293 24.6949 19.5489 24.9718 19.9088C25.1042 20.0803 25.3041 20.3408 25.5472 20.6604C25.8334 21.0353 26.0314 21.2808 26.0803 21.3623C26.4942 22.0521 26.7016 22.8656 26.7016 23.8028C26.7016 25.4531 26.1469 26.8355 25.0375 27.9517C23.9281 29.0678 22.5794 29.6255 20.9914 29.6255C19.744 29.6255 18.7313 29.2168 17.9542 28.4006C17.1761 27.5833 16.7876 26.5365 16.7876 25.2582C16.7876 24.7896 16.8345 24.3435 16.9246 23.918C16.3915 23.7737 15.865 23.6088 15.3478 23.4223C14.7772 23.217 14.2244 22.9902 13.7044 22.7494C13.3346 22.5779 12.9667 22.3942 12.6054 22.2002C12.2018 23.3004 12 24.4888 12 25.7671C12 28.1128 12.7696 30.0294 14.3089 31.5176C15.8481 33.0059 17.8726 33.75 20.3841 33.75C23.4786 33.75 26.1028 32.7472 28.2577 30.7407C30.4126 28.7351 31.4892 26.2516 31.4892 23.292C31.4892 22.9987 31.476 22.7128 31.4526 22.4335V22.4354Z" fill="#FEFBFF"/>
</svg>
